<?xml version="1.0" standalone="no"?>
<!DOCTYPE svg PUBLIC "-//W3C//DTD SVG 20010904//EN"
 "http://www.w3.org/TR/2001/REC-SVG-20010904/DTD/svg10.dtd">
<svg version="1.0" xmlns="http://www.w3.org/2000/svg"
 width="310.000000pt" height="310.000000pt" viewBox="0 0 310.000000 310.000000"
 preserveAspectRatio="xMidYMid meet">
<metadata>
Created by potrace 1.11, written by Peter Selinger 2001-2013
</metadata>
<g transform="translate(0.000000,310.000000) scale(0.100000,-0.100000)"
fill="#000000" stroke="none">
<path d="M1495 2883 c-28 -15 -125 -21 -194 -11 -20 2 -29 -6 -51 -47 -31 -56
-144 -150 -195 -161 -39 -8 -55 -22 -56 -48 0 -11 -10 -35 -22 -52 -116 -164
-139 -215 -136 -303 l0 -26 11 25 c6 14 17 38 25 54 7 16 13 40 13 54 0 24 77
152 92 152 17 0 38 34 32 52 -7 23 30 68 56 68 9 0 54 28 101 63 65 48 85 69
89 92 7 40 53 64 79 41 20 -18 43 -20 69 -7 92 49 275 62 347 25 118 -59 195
-119 385 -297 120 -114 249 -273 286 -355 35 -79 39 -85 52 -90 23 -7 25 29 3
52 -11 12 -21 28 -21 35 0 48 -154 244 -292 372 -197 183 -277 245 -390 301
-51 25 -67 28 -155 28 -71 -1 -106 -5 -128 -17z"/>
<path d="M1543 2505 c-8 -23 1 -27 31 -16 17 7 35 7 52 0 32 -11 42 -5 24 16
-17 21 -98 21 -107 0z"/>
<path d="M2152 2373 c-19 -14 -26 -14 -47 -3 -31 17 -44 6 -22 -18 10 -10 17
-24 17 -30 0 -19 35 -33 48 -20 7 7 12 17 12 24 0 6 7 17 15 24 16 13 21 40 8
39 -5 0 -18 -7 -31 -16z"/>
<path d="M1582 2318 c2 -12 10 -23 18 -23 22 0 19 39 -3 43 -15 3 -18 -1 -15
-20z"/>
<path d="M1557 2239 c-35 -27 -25 -45 13 -22 27 15 30 15 55 -1 40 -26 55 -5
17 23 -37 26 -50 26 -85 0z"/>
<path d="M2088 2249 c-10 -5 -18 -17 -18 -24 0 -17 16 -20 25 -5 8 14 41 13
65 -2 29 -18 39 1 11 23 -26 21 -56 24 -83 8z"/>
<path d="M821 2197 c-11 -30 -13 -328 -2 -307 10 18 25 330 17 330 -4 0 -10
-11 -15 -23z"/>
<path d="M2525 2060 c-11 -18 5 -30 40 -30 85 0 61 -115 -34 -165 -34 -17 -47
-37 -36 -54 6 -11 44 11 93 54 31 26 62 87 62 120 0 37 -50 85 -89 85 -16 0
-33 -4 -36 -10z"/>
<path d="M1278 2043 c-21 -9 -38 -22 -38 -29 0 -22 48 -17 60 6 14 27 67 27
96 -1 15 -14 29 -19 43 -14 29 9 26 22 -9 40 -36 19 -103 18 -152 -2z"/>
<path d="M792 1847 c-7 -16 -12 -39 -12 -52 0 -18 -15 -36 -55 -66 -30 -22
-57 -49 -60 -59 -3 -11 3 -38 15 -61 24 -51 25 -61 5 -98 -9 -19 -32 -35 -69
-51 -62 -25 -71 -41 -62 -104 9 -59 -18 -94 -77 -98 -39 -3 -43 -6 -65 -53
-13 -27 -39 -69 -58 -92 -27 -33 -34 -50 -34 -87 0 -41 4 -48 43 -79 73 -60
225 -122 335 -138 35 -4 80 -13 100 -19 20 -5 56 -10 78 -10 56 0 85 -25 94
-81 10 -56 34 -125 71 -202 21 -45 79 -107 99 -107 33 0 50 39 50 111 0 43 5
70 13 78 10 8 38 7 103 -2 116 -15 297 -15 404 1 101 15 110 9 102 -67 -6 -62
20 -121 52 -121 32 0 106 87 106 123 0 8 7 20 15 27 8 7 15 20 15 29 0 9 6 28
14 43 8 14 17 45 21 68 4 23 13 54 21 68 8 15 14 39 14 53 0 15 7 43 15 62 22
52 19 60 -14 42 -24 -12 -29 -21 -29 -47 1 -35 -12 -102 -32 -158 -69 -195
-110 -270 -145 -270 -12 0 -15 18 -15 94 0 52 -4 97 -10 101 -5 3 -55 -2 -112
-11 -174 -29 -439 -22 -516 14 -18 8 -35 13 -37 10 -3 -3 -7 -49 -9 -104 -2
-54 -4 -100 -5 -101 -1 -2 -10 -3 -20 -3 -26 0 -101 108 -101 145 0 6 -9 27
-20 48 -11 20 -20 50 -20 66 0 16 -11 54 -25 85 -22 50 -27 56 -44 46 -81 -43
-448 57 -544 148 -56 53 -55 71 4 140 20 22 29 44 29 66 0 39 17 49 64 41 28
-5 35 -1 68 41 36 44 38 49 32 99 -6 47 -4 54 15 65 12 6 30 8 40 5 22 -7 50
28 77 94 16 41 16 43 -6 86 -12 24 -20 50 -17 58 3 8 26 24 51 35 38 18 47 28
56 63 6 22 10 57 8 77 l-4 37 -12 -28z"/>
<path d="M2087 1834 c-9 -10 2 -24 19 -24 8 0 14 7 14 15 0 15 -21 21 -33 9z"/>
<path d="M1540 1809 c0 -19 20 -49 33 -49 7 0 22 6 33 14 18 14 17 15 -18 30
-44 19 -48 19 -48 5z"/>
<path d="M2002 1808 c-16 -16 -15 -33 2 -47 12 -10 17 -8 26 9 19 36 -1 65
-28 38z"/>
<path d="M1845 1730 c-3 -5 3 -10 14 -10 12 0 21 5 21 10 0 6 -6 10 -14 10 -8
0 -18 -4 -21 -10z"/>
<path d="M1765 1700 c-3 -5 3 -10 14 -10 12 0 21 5 21 10 0 6 -6 10 -14 10 -8
0 -18 -4 -21 -10z"/>
<path d="M1680 1660 c0 -5 6 -10 14 -10 8 0 18 5 21 10 3 6 -3 10 -14 10 -12
0 -21 -4 -21 -10z"/>
<path d="M1623 1625 c-3 -9 -3 -18 0 -21 9 -9 27 6 27 22 0 19 -19 18 -27 -1z"/>
<path d="M820 1582 c0 -13 23 -32 39 -32 8 0 42 -13 76 -29 34 -16 79 -33 101
-37 21 -3 50 -12 64 -19 14 -7 50 -15 80 -18 50 -6 57 -4 82 20 25 24 37 53
22 53 -3 0 -17 -9 -31 -20 -17 -13 -41 -20 -69 -20 -24 0 -66 9 -94 20 -28 11
-59 20 -70 20 -17 0 -32 6 -122 51 -38 20 -78 25 -78 11z"/>
<path d="M2216 1551 c-17 -19 -17 -20 2 -30 18 -9 24 -6 42 19 l21 30 -24 0
c-13 0 -32 -9 -41 -19z"/>
<path d="M1995 1541 c-10 -17 12 -21 25 -6 10 12 10 15 -3 15 -9 0 -18 -4 -22
-9z"/>
<path d="M1650 1521 c0 -6 5 -13 10 -16 6 -3 10 1 10 9 0 9 -4 16 -10 16 -5 0
-10 -4 -10 -9z"/>
<path d="M1869 1506 c-16 -33 13 -89 44 -84 18 2 23 11 25 41 2 21 -2 45 -9
53 -18 21 -48 17 -60 -10z"/>
<path d="M1671 1431 c-27 -37 -26 -41 3 -41 30 0 65 48 45 61 -21 13 -26 11
-48 -20z"/>
<path d="M2008 1433 c7 -3 16 -2 19 1 4 3 -2 6 -13 5 -11 0 -14 -3 -6 -6z"/>
<path d="M1590 1370 c0 -5 4 -10 9 -10 6 0 13 5 16 10 3 6 -1 10 -9 10 -9 0
-16 -4 -16 -10z"/>
<path d="M1720 1311 c0 -12 5 -21 10 -21 6 0 10 6 10 14 0 8 -4 18 -10 21 -5
3 -10 -3 -10 -14z"/>
<path d="M1343 1308 c4 -14 46 -12 62 3 5 5 -6 9 -29 9 -26 0 -36 -4 -33 -12z"/>
<path d="M2327 1261 c-5 -22 1 -33 14 -25 12 7 12 44 0 44 -5 0 -11 -9 -14
-19z"/>
<path d="M1984 1232 c17 -18 34 -32 38 -32 15 0 0 18 -35 41 l-32 22 29 -31z"/>
<path d="M1750 1211 c0 -11 5 -23 10 -26 6 -4 10 5 10 19 0 14 -4 26 -10 26
-5 0 -10 -9 -10 -19z"/>
<path d="M2040 1180 c0 -5 5 -10 11 -10 5 0 7 5 4 10 -3 6 -8 10 -11 10 -2 0
-4 -4 -4 -10z"/>
<path d="M2090 1111 c0 -23 6 -30 25 -35 35 -9 42 -2 37 34 -4 25 -9 30 -33
30 -25 0 -29 -4 -29 -29z"/>
<path d="M1785 1110 c3 -5 8 -10 11 -10 2 0 4 5 4 10 0 6 -5 10 -11 10 -5 0
-7 -4 -4 -10z"/>
<path d="M2032 1047 c-27 -29 -28 -37 -2 -37 18 0 40 26 40 49 0 18 -15 13
-38 -12z"/>
<path d="M1930 990 c-12 -8 -9 -10 13 -10 15 0 27 5 27 10 0 13 -20 13 -40 0z"/>
<path d="M1820 983 c0 -21 28 -46 44 -40 21 8 21 23 -1 31 -10 3 -24 9 -30 12
-7 3 -13 2 -13 -3z"/>
</g>
</svg>
