<?xml version="1.0" standalone="no"?>
<!DOCTYPE svg PUBLIC "-//W3C//DTD SVG 20010904//EN"
 "http://www.w3.org/TR/2001/REC-SVG-20010904/DTD/svg10.dtd">
<svg version="1.0" xmlns="http://www.w3.org/2000/svg"
 width="310.000000pt" height="310.000000pt" viewBox="0 0 310.000000 310.000000"
 preserveAspectRatio="xMidYMid meet">
<metadata>
Created by potrace 1.11, written by Peter Selinger 2001-2013
</metadata>
<g transform="translate(0.000000,310.000000) scale(0.100000,-0.100000)"
fill="#000000" stroke="none">
<path d="M1485 2899 c-41 -16 -65 -18 -138 -13 l-87 6 -25 -55 c-30 -65 -114
-134 -185 -152 -46 -12 -50 -16 -83 -97 -9 -20 -39 -69 -68 -109 -45 -63 -54
-85 -74 -173 -14 -65 -24 -152 -28 -247 -4 -80 -11 -166 -16 -190 -6 -24 -13
-55 -15 -69 -3 -15 -27 -42 -60 -68 -30 -23 -57 -51 -61 -62 -3 -10 3 -36 15
-59 36 -71 21 -109 -51 -135 -61 -22 -79 -52 -72 -119 7 -61 -13 -87 -68 -87
-43 0 -72 -29 -89 -88 -5 -19 -24 -51 -42 -69 -28 -29 -33 -41 -33 -85 0 -47
3 -53 43 -88 103 -88 344 -170 503 -170 70 0 95 -17 104 -72 3 -24 12 -59 20
-78 7 -19 24 -61 36 -93 25 -63 80 -134 113 -147 53 -19 91 42 84 139 l-3 46
55 -1 c30 -1 84 -6 120 -12 84 -15 179 -15 260 0 36 6 85 12 110 12 l45 1 5
-70 c7 -99 23 -122 80 -116 8 1 30 19 48 39 46 50 92 153 132 292 12 41 26 89
31 106 5 17 9 37 9 45 0 30 54 69 94 69 20 0 47 6 59 12 12 7 42 18 67 25 25
6 65 17 90 24 94 25 133 46 224 124 52 44 97 86 100 93 7 17 -1 33 -79 152
-59 92 -71 122 -98 252 -7 31 -18 63 -24 70 -7 6 -13 33 -13 58 0 50 10 67 53
94 83 51 114 166 61 220 -16 15 -38 26 -53 26 -33 0 -51 17 -51 46 0 13 -9 29
-21 38 -11 8 -36 44 -54 80 -47 90 -166 237 -261 321 -43 38 -88 79 -99 91
-29 32 -163 142 -210 172 -22 14 -69 41 -105 59 -59 31 -71 33 -155 32 -63 0
-105 -6 -140 -20z m269 -64 c95 -41 182 -107 373 -285 155 -144 262 -289 312
-423 7 -19 20 -29 41 -34 28 -5 30 -8 24 -39 -5 -29 -3 -34 19 -39 13 -4 31
-6 38 -5 50 7 54 -38 8 -93 -35 -43 -60 -47 -83 -12 -19 28 -20 58 -5 87 17
31 -3 42 -33 18 -36 -28 -44 -67 -20 -99 35 -48 52 -90 52 -129 0 -37 -4 -43
-61 -83 -33 -24 -80 -59 -104 -76 -24 -18 -50 -33 -58 -33 -13 0 -57 86 -57
113 0 6 -7 21 -15 31 -8 11 -15 28 -15 39 0 10 -10 33 -22 49 -19 28 -24 30
-65 24 -42 -5 -45 -4 -64 29 -12 19 -27 35 -35 35 -17 0 -18 -34 -2 -60 18
-28 0 -53 -48 -66 -21 -6 -48 -14 -59 -18 -51 -19 -122 -50 -147 -62 -14 -8
-32 -14 -40 -14 -7 0 -30 -11 -51 -25 -41 -28 -46 -52 -22 -99 8 -15 15 -36
15 -45 0 -9 7 -29 15 -45 20 -38 10 -49 -89 -98 -56 -27 -93 -38 -125 -38 -26
0 -64 -5 -86 -10 -36 -9 -42 -7 -62 16 -33 36 -32 96 2 118 34 22 32 52 -8
122 -32 57 -34 59 -77 62 -54 4 -65 13 -51 41 11 20 19 21 202 21 159 0 191 2
195 15 4 8 11 15 18 15 11 0 29 9 106 54 25 14 59 33 75 41 17 9 44 24 60 35
67 44 116 60 183 60 37 0 98 7 137 15 38 8 81 15 95 15 14 0 50 14 80 30 30
16 65 34 78 39 24 11 31 51 8 51 -7 0 -24 -8 -37 -17 -35 -26 -61 -42 -84 -52
-35 -15 -146 -33 -255 -41 -107 -7 -168 -28 -265 -90 -16 -11 -44 -26 -61 -34
-17 -8 -35 -19 -38 -25 -8 -12 -54 -5 -70 10 -6 5 -21 9 -34 9 -21 0 -24 -4
-20 -27 3 -16 8 -35 12 -44 6 -14 -12 -17 -166 -24 -245 -10 -262 -13 -266
-48 -2 -18 2 -29 12 -33 26 -10 18 -34 -15 -46 -19 -7 -29 -16 -27 -27 5 -24
37 -25 69 -2 37 28 43 27 86 -14 32 -30 34 -36 23 -51 -28 -33 -60 -36 -134
-13 -129 39 -160 50 -224 81 -69 32 -92 31 -92 -5 0 -28 17 -47 43 -47 10 0
31 -7 45 -14 62 -34 248 -96 287 -96 11 0 25 -4 31 -8 19 -12 54 -102 54 -137
0 -18 7 -46 15 -61 8 -16 15 -46 15 -66 0 -20 5 -48 11 -62 9 -19 9 -40 1 -83
-12 -64 -20 -299 -10 -308 3 -4 51 -8 105 -10 54 -2 137 -7 186 -11 81 -6 91
-4 145 21 31 14 64 31 72 36 8 5 26 14 40 20 14 7 60 29 103 51 l77 39 0 -35
c0 -20 -6 -50 -14 -68 -7 -18 -23 -64 -36 -103 -25 -80 -67 -170 -87 -186 -16
-14 -16 -14 -17 90 -1 102 -10 112 -81 93 -90 -24 -281 -34 -418 -21 -150 14
-177 28 -177 85 0 28 -4 35 -17 32 -16 -3 -18 -19 -21 -146 -3 -153 -10 -171
-50 -114 -25 35 -79 174 -91 232 -5 25 -16 63 -25 85 -8 22 -15 55 -16 73 0
18 -5 43 -12 55 -7 12 -15 49 -19 82 -3 33 -11 80 -17 105 -7 25 -14 57 -17
73 -3 15 -12 27 -19 27 -18 0 -28 -27 -20 -52 3 -11 14 -63 24 -116 11 -53 24
-119 30 -145 8 -33 9 -52 2 -59 -17 -17 -216 11 -316 44 -123 40 -190 74 -221
109 -33 40 -32 51 10 98 19 21 42 56 51 77 9 22 19 33 21 27 10 -28 44 -10 93
49 45 54 51 66 45 92 -17 72 -10 80 50 61 17 -5 25 6 57 73 21 44 38 84 38 91
0 7 -10 29 -22 50 -19 33 -20 41 -9 55 7 9 23 16 35 16 11 0 27 4 35 9 25 16
60 206 61 328 0 117 23 264 46 298 8 11 14 33 14 50 0 39 53 122 90 143 23 13
30 24 30 49 0 32 21 63 44 63 8 0 35 17 62 38 27 21 66 49 86 62 21 14 44 42
55 65 21 45 51 59 60 25 4 -15 11 -19 22 -15 80 32 177 59 231 64 71 7 104 2
164 -24z m367 -1062 c6 -16 17 -40 25 -55 8 -14 14 -35 14 -45 0 -10 4 -23 9
-28 4 -6 13 -25 20 -44 9 -29 8 -37 -5 -52 -9 -10 -26 -21 -37 -25 -12 -4 -42
-20 -68 -35 -50 -32 -109 -39 -109 -14 0 8 15 21 33 28 23 10 38 27 51 56 19
40 19 43 1 115 -18 70 -18 76 -2 100 23 34 54 34 68 -1z m-127 -35 c2 -7 8
-33 14 -58 6 -25 14 -53 17 -62 5 -12 -6 -30 -33 -58 -34 -36 -40 -39 -52 -25
-30 36 -100 4 -100 -47 0 -20 -5 -21 -75 -18 -58 2 -75 13 -75 47 0 14 -8 38
-17 53 -14 24 -14 31 -4 44 8 9 18 16 23 16 5 0 28 8 51 18 23 10 60 26 82 34
61 25 67 28 105 48 41 22 59 25 64 8z m521 -110 c4 -29 14 -65 21 -80 8 -15
14 -40 14 -55 0 -34 20 -75 83 -170 42 -63 61 -122 40 -123 -5 -1 -37 -28 -73
-61 -84 -77 -130 -98 -284 -130 -28 -6 -59 -17 -70 -25 -11 -8 -34 -14 -51
-14 -17 0 -40 -7 -51 -15 -10 -8 -25 -15 -33 -15 -17 0 -299 -139 -307 -151
-3 -5 -16 -9 -28 -9 -13 0 -29 -6 -35 -13 -24 -30 -90 -39 -240 -32 -80 4
-154 12 -165 17 -15 8 -17 17 -12 51 4 23 7 112 7 197 1 117 -3 166 -15 200
-30 86 -29 86 77 82 l92 -4 90 46 c49 26 95 44 102 42 6 -3 15 -22 18 -43 3
-21 13 -53 21 -71 8 -18 14 -40 14 -50 0 -9 9 -39 19 -67 11 -27 30 -84 43
-125 l24 -75 44 1 c42 1 113 21 152 44 10 6 25 10 33 10 9 0 23 16 31 35 12
29 20 35 44 35 16 0 32 -5 35 -10 8 -14 86 -53 92 -47 10 10 -27 64 -51 75
-17 8 -26 20 -26 35 0 20 11 28 68 51 79 33 132 70 132 94 0 10 -9 34 -20 55
-11 20 -20 43 -20 51 0 8 -7 28 -15 45 -8 17 -22 45 -30 62 -22 46 -19 62 23
89 20 13 66 46 101 72 84 63 97 63 106 -4z m-259 -200 c14 -40 33 -88 40 -107
24 -58 19 -69 -43 -97 -32 -14 -74 -34 -94 -45 -20 -10 -41 -19 -47 -19 -12 0
-116 102 -136 133 -8 12 -17 41 -21 63 l-6 41 39 7 c22 3 77 26 123 50 46 25
91 45 101 45 11 1 24 -20 44 -71z m-413 -32 c10 -8 27 -12 37 -9 18 5 20 0 20
-42 0 -49 29 -101 73 -134 36 -26 97 -85 97 -94 0 -18 -82 -86 -118 -97 -20
-6 -47 -16 -59 -22 -13 -6 -26 -8 -30 -4 -10 10 -33 75 -43 119 -4 21 -13 44
-19 50 -6 6 -11 25 -11 42 0 17 -6 39 -14 50 -7 11 -16 37 -19 59 -3 21 -14
47 -23 57 -9 10 -13 23 -9 28 9 16 97 13 118 -3z"/>
<path d="M1542 2524 c-13 -9 -22 -26 -22 -41 0 -22 3 -24 23 -18 27 10 73 9
110 0 24 -7 27 -5 27 19 0 47 -90 74 -138 40z"/>
<path d="M2050 2384 c0 -9 11 -29 25 -46 32 -38 31 -50 -5 -86 -16 -17 -30
-35 -30 -42 0 -19 33 -24 61 -8 24 14 30 14 46 2 49 -37 81 1 38 46 -30 31
-28 58 7 97 36 39 4 69 -42 41 -16 -10 -24 -10 -40 0 -28 17 -60 15 -60 -4z"/>
<path d="M1574 2349 c-4 -7 -7 -26 -6 -43 1 -22 -8 -40 -30 -63 -16 -17 -27
-36 -24 -42 9 -14 41 -14 64 0 14 9 25 8 48 -3 16 -9 35 -13 42 -11 21 8 13
42 -13 59 -19 12 -25 25 -25 53 0 50 -36 82 -56 50z"/>
<path d="M1269 2055 c-26 -13 -49 -32 -53 -41 -9 -24 10 -42 39 -36 17 3 34
-4 55 -22 39 -32 45 -32 75 0 13 14 39 30 59 35 53 15 48 41 -13 68 -64 27
-105 26 -162 -4z m111 -56 c0 -16 -5 -20 -27 -17 -17 2 -29 10 -31 21 -3 13 3
17 27 17 25 0 31 -4 31 -21z"/>
</g>
</svg>
