<?xml version="1.0" encoding="utf-8"?>
<!-- Generator: Adobe Illustrator 20.1.0, SVG Export Plug-In . SVG Version: 6.00 Build 0)  -->
<svg version="1.1" id="Layer_1" xmlns="http://www.w3.org/2000/svg" xmlns:xlink="http://www.w3.org/1999/xlink" x="0px" y="0px"
	 viewBox="0 0 1676 1035.5" enable-background="new 0 0 1676 1035.5" xml:space="preserve">
<title>logo-state2</title>
<desc>Created with Sketch.</desc>
<path fill="#6D6B67" d="M0,0v1035.5h1676V0H0z M1251.2,326.6l87,65v67.8h-87V326.6z M1034.7,355.4c28.7,0,49.9,9.4,60.3,15.1
	l11.3-33.4v0l87,65l-11.3,33.4c-10.4-5.6-31.5-15.1-60.3-15.1c-43.3,0-59.8,25.9-59.8,47.5c0,2.4,0.1,4.7,0.4,7c0,0,0,0,0,0
	c-7.4-3.8-15.5-7.3-24.4-10.7c-43.8-16.9-63.1-31.5-63.1-61.2C974.9,381.3,991.4,355.4,1034.7,355.4z M1076.3,550.7
	c-25-12.6-42.7-28.7-50.9-49.9C1060,515.4,1074,532.7,1076.3,550.7C1076.1,549.1,1076.6,552.3,1076.3,550.7z M726.2,361h130.4v-34.4
	l87,65v3.9v24.4v6.1H813.2v35.3h-87V361z M726.2,495.2h123.3v-33.9l87,65v33.9H813.2v49.4h-87V495.2z M428.3,359.6
	c6.6-1.9,20.7-3.8,40.5-3.8c43.3,0.5,73,18.4,73,59.3c0,36.2-27.8,60.3-71.6,60.3h-41.9V359.6z M370.8,565.3h-120v143.6h-41l-87-65
	v0h41V500.4h120v-33.9l87,65V565.3z M380.7,426H250.8v40.5h-87V361h129.9v-34.4l87,65V426z M531.2,571.4h-15.9v137.5h-41l-87-65v0
	h41V506.5h38.6c37.2,1.4,54.1,17.9,63.6,61.7C530.8,569.3,531,570.4,531.2,571.4C531.3,571.5,531.2,571.5,531.2,571.4z M638.7,708.9
	l-87-65v0h42.4c-6.6-12.2-14.1-42.8-24.5-87.1c-7.5-33-22.1-55.6-46.6-64v-1.4c33.4-11.3,59.8-39.1,59.8-81c0-24.5-8.9-46.1-25-60.3
	c-10.8-9.8-24.2-16.6-41.2-20.8c43.8,3.5,109,68.3,128.2,85.7c16,14.1,25,35.8,25,60.3c0,41.9-26.4,69.7-59.8,81v1.4
	c24.5,8.5,39.1,31.1,46.6,64c10.4,44.3,17.9,74.9,24.5,87.1H638.7z M950.7,708.9H772.3l-87-65v0h178.4v-34.4l87,65V708.9z
	 M1094.9,713.6c-30.6,0-64-8.9-81-20.2l-87-65c16.9,11.3,50.4,20.2,81,20.2c74.9,0,111.1-42.4,111.1-91.3c0-26.7-8.9-46.5-26.6-62.5
	c0,0,0,0,0,0l0,0l69.5,52c6.9,4.2,13,8.8,18.2,13.6l0,0l0,0c17.2,15.9,25.8,35.6,25.8,61.8C1206,671.2,1169.7,713.6,1094.9,713.6z
	 M1338.2,708.9h-41l-87-65v0h41V495.2h153.5v65h-66.5V708.9z M1533.1,708.9h-41.4l-87-65v0h41.4V326.6l87,65V708.9z"/>
</svg>
