<?xml version="1.0" encoding="UTF-8" standalone="no"?>
<svg width="1440px" height="664px" viewBox="0 0 1440 664" version="1.1" xmlns="http://www.w3.org/2000/svg" xmlns:xlink="http://www.w3.org/1999/xlink">
    <!-- Generator: Sketch 40.3 (33839) - http://www.bohemiancoding.com/sketch -->
    <title>logo-state2</title>
    <desc>Created with Sketch.</desc>
    <defs>
        <path d="M0,0 L1440,0 L1440,664 L0,664 L0,0 Z M1219.53213,476.229441 L1132.27538,412.239382 C1144.48873,453.542753 1175.90209,500.079463 1230.00214,503.569466 C1225.3488,494.842792 1221.8588,485.536116 1219.53213,476.229441 Z M1326.56289,413.406049 C1324.23956,365.706005 1280.02952,347.089321 1239.31281,333.129308 C1207.89945,322.659299 1174.73942,307.535951 1156.7094,283.685929 C1169.50275,347.089321 1228.83947,368.032674 1260.25283,378.502684 C1284.10286,386.646025 1309.11621,396.536034 1326.56289,413.406049 Z M390.313361,140.58413 L390.313361,303.460948 L444.493412,303.460948 C489.47012,303.460948 525.930154,267.000914 525.930154,222.024206 C525.930154,177.044164 489.47012,140.58413 444.493412,140.58413 L390.313361,140.58413 Z M562.097187,389.763361 C578.033869,384.243356 592.427215,375.903348 604.297226,364.853338 C613.940568,356.349997 621.797242,345.689987 627.503914,333.679976 C634.547254,319.389962 638.520591,303.313281 638.520591,286.299932 C638.520591,278.896592 637.753924,271.673252 636.327256,264.693245 C631.990585,239.283222 619.61724,217.226534 598.563888,201.663187 L522.687151,145.886468 L521.540483,147.029803 C540.277167,166.353154 551.817178,192.693178 551.817178,221.733205 C551.817178,270.536584 519.230481,311.696622 474.637106,324.726634 L567.747192,522.183484 L536.90383,522.183484 L624.160578,586.173543 L654.940606,586.173543 L562.097187,389.763361 Z M1325.70323,348.860656 L1324.93323,349.627324 C1338.80324,363.09067 1352.74325,384.190689 1352.74325,417.477387 C1352.74325,480.300778 1302.71654,529.164157 1236.39981,529.164157 C1213.20979,529.164157 1194.93311,523.350818 1181.29976,516.610812 L1180.05309,517.854146 L1251.52649,570.464195 C1270.71984,584.427541 1294.5732,593.150883 1323.65656,593.150883 C1389.97329,593.150883 1440,544.290837 1440,481.464112 C1440,445.980746 1423.70998,420.384056 1401.0233,404.097374 L1325.70323,348.860656 Z M1303.00221,19.7593516 L1237.29881,85.4627458 L1270.14218,112.08277 C1290.50219,117.896109 1307.36888,128.949453 1320.74889,141.166131 L1383.32561,78.4094059 L1303.00221,19.7593516 Z M1193.2081,0 L1240.97482,47.7667109 L1260.25483,28.486693 L1193.2081,0 Z M1330.83023,147.464137 C1330.2069,148.114137 1329.5969,148.754138 1329.00356,149.374138 C1337.37357,158.404147 1343.35358,167.084155 1346.92691,171.997493 L1324.82023,185.957506 C1310.27688,163.270818 1281.77352,133.604124 1241.63682,133.604124 C1196.26344,133.604124 1159.61674,169.08749 1159.61674,212.714197 C1159.61674,278.450924 1217.20346,298.80761 1247.45349,308.697619 L1252.69016,310.444287 C1249.20016,301.717613 1246.87349,289.500935 1246.87349,276.704256 C1246.87349,233.077549 1283.52019,197.59085 1328.89023,197.59085 C1333.5469,197.59085 1338.20024,198.174183 1342.27358,198.754184 L1412.07697,249.944231 L1434.18033,235.984219 C1425.45699,222.604206 1412.07697,206.317524 1395.20696,194.100846 L1330.83023,147.464137 Z M476.321774,389.763028 L447.538414,329.056305 L390.315028,329.056305 L390.315028,522.18315 L363.555003,522.18315 L450.811751,586.173209 L476.321774,586.173209 L476.321774,389.763028 Z M114.013439,389.763361 L238.500221,389.763361 L238.500221,366.286672 L151.243473,303.459948 L151.243473,329.056638 L26.7566914,329.056638 L26.7566914,522.183484 L0,522.183484 L87.2567475,586.173543 L114.013439,586.173543 L114.013439,389.763361 Z M1029.59895,586.171876 L1029.59895,562.695188 L942.342206,499.868463 L942.342206,522.18515 L757.938702,522.18515 L845.195449,586.171876 L1029.59895,586.171876 Z M114.013439,303.461614 L114.013439,201.398186 L258.86024,201.398186 L258.86024,177.921498 L171.603492,115.094773 L171.603492,140.691464 L26.7566914,140.691464 L26.7566914,303.461614 L114.013439,303.461614 Z M871.954807,303.461614 L871.954807,201.398186 L1016.80161,201.398186 L1016.80161,177.921498 L929.544861,115.094773 L929.544861,140.691464 L784.69806,140.691464 L784.69806,303.461614 L871.954807,303.461614 Z M871.954807,496.007126 L871.954807,389.763694 L996.441589,389.763694 L996.441589,366.287006 L909.184842,303.460281 L909.184842,329.056971 L784.69806,329.056971 L784.69806,496.007126 L871.954807,496.007126 Z" id="path-1"></path>
    </defs>
    <g id="Symbols" stroke="none" stroke-width="1" fill="none" fill-rule="evenodd">
        <g id="logo-state2">
            <g id="Group">
                <mask id="mask-2" fill="white">
                    <use xlink:href="#path-1"></use>
                </mask>
                <use id="Combined-Shape" fill="#FFFFFF" xlink:href="#path-1"></use>
            </g>
        </g>
    </g>
</svg>